<?xml version="1.0" encoding="UTF-8" standalone="no"?>
<!-- Created with Inkscape (http://www.inkscape.org/) -->

<svg
   width="512"
   height="512"
   version="1.1"
   viewBox="0 0 512 512"
   id="svg2"
   sodipodi:docname="market.svg"
   inkscape:version="1.3 (0e150ed6c4, 2023-07-21)"
   xmlns:inkscape="http://www.inkscape.org/namespaces/inkscape"
   xmlns:sodipodi="http://sodipodi.sourceforge.net/DTD/sodipodi-0.dtd"
   xmlns="http://www.w3.org/2000/svg"
   xmlns:svg="http://www.w3.org/2000/svg">
  <defs
     id="defs2" />
  <sodipodi:namedview
     id="namedview2"
     pagecolor="#ffffff"
     bordercolor="#000000"
     borderopacity="0.25"
     inkscape:showpageshadow="2"
     inkscape:pageopacity="0.0"
     inkscape:pagecheckerboard="0"
     inkscape:deskcolor="#d1d1d1"
     inkscape:zoom="1.5878906"
     inkscape:cx="255.68512"
     inkscape:cy="256"
     inkscape:window-width="1920"
     inkscape:window-height="1009"
     inkscape:window-x="-8"
     inkscape:window-y="-8"
     inkscape:window-maximized="1"
     inkscape:current-layer="svg2" />
  <g
     fill="#f9f9f9"
     id="g2"
     style="fill:#f2f2f2">
    <path
       transform="translate(0 -16.374)"
       d="m53.111 146.16 49.879-0.0974a2.952 2.952 35.37 0 1 2.7945 1.9837l60.795 175.09a22.572 22.572 35.194 0 0 21.506 15.167l197.62-1.6002a8.0847 8.0847 142.18 0 0 7.7501-6.0156l4.7557-17.966a5.0559 5.0559 52.413 0 0-4.8876-6.3497h-190.35a5.1883 5.1883 33.787 0 1-4.796-3.209l-10.254-24.846 208.17-1.4749a15.668 15.668 142.58 0 0 14.982-11.461l26.226-94.094a10.042 10.042 52.744 0 0-9.6888-12.738l-279.77 0.42517-15.864-44.669a4.478 4.478 35.224 0 0-4.2198-2.9794l-73.656 1e-5a6.0104 6.0104 135 0 0-6.0104 6.0104l1e-6 23.818a5.0071 5.0071 44.944 0 0 5.0169 5.0071z"
       id="path1"
       style="fill:#f2f2f2" />
    <circle
       cx="355.36"
       cy="363.92"
       r="33.844"
       id="circle1"
       style="fill:#f2f2f2" />
    <circle
       cx="206.5"
       cy="363.81"
       r="33.844"
       id="circle2"
       style="fill:#f2f2f2" />
  </g>
</svg>
