<?xml version="1.0" encoding="UTF-8"?>
<!-- Created with Inkscape (http://www.inkscape.org/) -->
<svg width="512" height="512" version="1.1" viewBox="0 0 512 512" xmlns="http://www.w3.org/2000/svg">
 <g fill="#333">
  <path d="m255.99 69.469a195.49 188.85 0 0 0-195.43 188.89 195.49 188.85 0 0 0 195.51 188.81 195.49 188.85 0 0 0 195.47-188.85v-0.08008a195.49 188.85 0 0 0-195.55-188.77zm0.9082 46.312a143.39 143.39 0 0 1 143.44 143.33v0.06055a143.39 143.39 0 0 1-143.38 143.39 143.39 143.39 0 0 1-143.41-143.36 143.39 143.39 0 0 1 143.35-143.42z" stroke-width="1.0655"/>
  <path d="m257.39 162.09-61.453 103.31 65.016 100.64 59.672-103.31z"/>
 </g>
</svg>
