<?xml version="1.0" encoding="UTF-8"?>
<!-- Created with Inkscape (http://www.inkscape.org/) -->
<svg width="512" height="512" version="1.1" viewBox="0 0 512 512" xmlns="http://www.w3.org/2000/svg">
 <g fill="#f2f2f2">
  <path d="m257.34 244.92a168.77 168.77 0 0 0-168.77 168.77 168.77 168.77 0 0 0 0.03125 0.44531h49.48a118.01 118.01 0 0 1 103.79-116.55 110.44 110.44 0 0 1 17.693-1.459 110.44 110.44 0 0 1 90.223 46.811 118.01 118.01 0 0 1 24.262 71.197h50.281v23.859a168.77 168.77 0 0 0 1.7812-24.305 168.77 168.77 0 0 0-168.77-168.77z"/>
  <path d="m251.02 63.414a86.985 86.985 0 0 0-86.984 86.984 86.985 86.985 0 0 0 86.984 86.984 86.985 86.985 0 0 0 86.986-86.984 86.985 86.985 0 0 0-86.986-86.984zm1.2012 39.238a47.547 47.547 0 0 1 47.549 47.547 47.547 47.547 0 0 1-47.549 47.547 47.547 47.547 0 0 1-47.547-47.547 47.547 47.547 0 0 1 47.547-47.547z" stroke-width="1.1357"/>
 </g>
</svg>
